<svg id="visual" viewBox="0 0 900 600" width="900" height="600" xmlns="http://www.w3.org/2000/svg" xmlns:xlink="http://www.w3.org/1999/xlink" version="1.1"><rect x="0" y="0" width="900" height="600" fill="#141414"></rect><path d="M0 115L21.5 112.2C43 109.3 86 103.7 128.8 100.3C171.7 97 214.3 96 257.2 98.7C300 101.3 343 107.7 385.8 105.3C428.7 103 471.3 92 514.2 93.2C557 94.3 600 107.7 642.8 115.2C685.7 122.7 728.3 124.3 771.2 123.2C814 122 857 118 878.5 116L900 114L900 0L878.5 0C857 0 814 0 771.2 0C728.3 0 685.7 0 642.8 0C600 0 557 0 514.2 0C471.3 0 428.7 0 385.8 0C343 0 300 0 257.2 0C214.3 0 171.7 0 128.8 0C86 0 43 0 21.5 0L0 0Z" fill="#48a968"></path><path d="M0 60L21.5 63.7C43 67.3 86 74.7 128.8 73C171.7 71.3 214.3 60.7 257.2 57.2C300 53.7 343 57.3 385.8 59.8C428.7 62.3 471.3 63.7 514.2 63C557 62.3 600 59.7 642.8 58.8C685.7 58 728.3 59 771.2 63.7C814 68.3 857 76.7 878.5 80.8L900 85L900 0L878.5 0C857 0 814 0 771.2 0C728.3 0 685.7 0 642.8 0C600 0 557 0 514.2 0C471.3 0 428.7 0 385.8 0C343 0 300 0 257.2 0C214.3 0 171.7 0 128.8 0C86 0 43 0 21.5 0L0 0Z" fill="#378153"></path><path d="M0 48L21.5 47.8C43 47.7 86 47.3 128.8 43.2C171.7 39 214.3 31 257.2 29.3C300 27.7 343 32.3 385.8 34C428.7 35.7 471.3 34.3 514.2 38.7C557 43 600 53 642.8 52.2C685.7 51.3 728.3 39.7 771.2 33C814 26.3 857 24.7 878.5 23.8L900 23L900 0L878.5 0C857 0 814 0 771.2 0C728.3 0 685.7 0 642.8 0C600 0 557 0 514.2 0C471.3 0 428.7 0 385.8 0C343 0 300 0 257.2 0C214.3 0 171.7 0 128.8 0C86 0 43 0 21.5 0L0 0Z" fill="#295a3e"></path></svg>